<svg width="18" height="18" viewBox="0 0 18 18" fill="none" xmlns="http://www.w3.org/2000/svg">
<path d="M3.82351 4.7648H2.88234C2.38311 4.7648 1.90433 4.96312 1.55132 5.31613C1.19832 5.66913 1 6.14791 1 6.64714V15.1177C1 15.6169 1.19832 16.0957 1.55132 16.4487C1.90433 16.8017 2.38311 17 2.88234 17H11.3529C11.8521 17 12.3309 16.8017 12.6839 16.4487C13.0369 16.0957 13.2352 15.6169 13.2352 15.1177V14.1765" stroke="#565656" stroke-width="2" stroke-linecap="round" stroke-linejoin="round"/>
<path d="M12.2933 2.88244L15.1168 5.70595M16.4203 4.3742C16.791 4.00352 16.9992 3.50077 16.9992 2.97656C16.9992 2.45234 16.791 1.9496 16.4203 1.57892C16.0496 1.20824 15.5469 1 15.0227 1C14.4985 1 13.9957 1.20824 13.625 1.57892L5.70508 9.47064V12.2941H8.52859L16.4203 4.3742Z" stroke="#565656" stroke-width="2" stroke-linecap="round" stroke-linejoin="round"/>
</svg>
